# xmcd
#
# Track frame offsets:
#	150
#	18837
#	37210
#	51650
#	68797
#	79837
#	92382
#	106805
#	123582
#	136530
#	151752
#	161652
#
# Disc length: 2340 seconds
#
# Revision: 1
# Processed by: cddbd v1.5.1PL0 Copyright (c) Steve Scherf et al.
# Submitted via: dBpowerAMP V4.0
#
DISCID=9209220c
DTITLE=Mark Lemhouse - Big Lonesome Radio
DYEAR=2003
DGENRE=Blues
TTITLE0=You Can't Get that Stuff No More
TTITLE1=What's the Matter With Papa's Little Angel Child
TTITLE2=Baby Sister Blues
TTITLE3=Jealous Moon
TTITLE4=Tappin' that Thing
TTITLE5=Electra 225
TTITLE6=Edwin's Lament
TTITLE7=No One Can Forgive Me But My Baby
TTITLE8=Mercy Mia
TTITLE9=Pony Blues
TTITLE10=One Hand Loose
TTITLE11=Driftin'
EXTD=
EXTT0=
EXTT1=
EXTT2=
EXTT3=
EXTT4=
EXTT5=
EXTT6=
EXTT7=
EXTT8=
EXTT9=
EXTT10=
EXTT11=
PLAYORDER=
